<?xml version="1.0" standalone="no"?>
<!DOCTYPE svg PUBLIC "-//W3C//DTD SVG 20010904//EN"
 "http://www.w3.org/TR/2001/REC-SVG-20010904/DTD/svg10.dtd">
<svg version="1.0" xmlns="http://www.w3.org/2000/svg"
 width="145.000000pt" height="265.000000pt" viewBox="0 0 145.000000 265.000000"
 preserveAspectRatio="xMidYMid meet">

<g transform="translate(0.000000,265.000000) scale(0.100000,-0.100000)"
fill="#000000" stroke="none">
<path d="M635 2573 c-195 -27 -370 -142 -476 -314 -67 -109 -84 -180 -84 -354
1 -131 3 -158 24 -215 74 -208 248 -373 452 -425 186 -49 401 -19 544 75 102
67 206 185 246 278 57 131 63 162 64 293 0 75 -5 136 -11 150 -7 13 -24 58
-38 100 -40 115 -127 223 -246 306 -125 88 -309 129 -475 106z m384 -123 c61
-11 135 -59 156 -100 30 -59 12 -179 -46 -303 -22 -48 -29 -77 -27 -109 l3
-43 114 -3 c159 -4 176 -24 67 -79 -28 -14 -111 -59 -184 -100 -132 -74 -134
-75 -230 -84 -53 -4 -132 -15 -175 -24 -101 -19 -167 -20 -167 -1 0 8 39 40
86 72 58 39 81 60 72 65 -20 11 -299 15 -428 5 -93 -6 -118 -5 -133 6 -18 13
-16 15 20 25 21 7 88 23 149 37 61 13 153 42 205 62 90 36 100 38 211 39 l117
0 15 40 c38 104 72 260 86 394 5 57 14 98 22 102 16 11 6 11 67 -1z"/>
</g>
</svg>
